<svg xmlns="http://www.w3.org/2000/svg" width="19" height="19" viewBox="0 0 19 19"><path fill-rule="evenodd" d="M9.5 19C4.253 19 0 14.747 0 9.5S4.253 0 9.5 0 19 4.253 19 9.5 14.747 19 9.5 19zm0-2c4.142 0 7.5-3.358 7.5-7.5C17 5.358 13.642 2 9.5 2 5.358 2 2 5.358 2 9.5 2 13.642 5.358 17 9.5 17zm2.587-9.478c0 .23-.028.43-.083.603-.055.173-.133.332-.234.478-.1.145-.222.282-.364.41-.142.13-.303.262-.483.4-.11.09-.203.17-.276.24-.072.07-.13.14-.17.213-.043.073-.072.15-.09.23-.017.078-.025.174-.025.284v.27H8.74v-.394c0-.18.017-.342.052-.484.035-.142.087-.272.156-.39.07-.117.154-.232.255-.342.1-.11.22-.226.358-.344l.346-.322c.118-.104.22-.213.302-.327.083-.115.124-.25.124-.41 0-.223-.066-.4-.2-.53-.136-.133-.32-.198-.557-.198-.29 0-.51.095-.655.293-.146.197-.226.42-.24.67L7.026 7.7c.04-.376.137-.705.286-.99.15-.283.342-.52.578-.706.235-.187.502-.327.8-.42.298-.094.613-.14.946-.14.312 0 .615.04.91.118.294.08.556.205.784.375.23.17.413.386.55.65.14.263.21.574.21.935zm-1.517 4.594c0 .278-.098.512-.292.702-.194.19-.433.286-.717.286-.135 0-.265-.024-.39-.073-.12-.045-.225-.115-.32-.205-.092-.09-.17-.194-.222-.312-.056-.116-.084-.245-.084-.383 0-.133.026-.26.078-.38.053-.12.126-.228.22-.318.093-.09.2-.16.327-.213.124-.054.256-.08.394-.08.14 0 .27.025.39.077.122.052.23.122.323.208.094.087.167.19.22.312.05.12.077.248.077.38z"></path></svg>
